<?xml version="1.0" encoding="UTF-8" standalone="yes"?><svg xmlns="http://www.w3.org/2000/svg" xmlns:xlink="http://www.w3.org/1999/xlink" height="448px" style="width:456px;height:448px;" version="1.1" viewBox="0 0 456 448" width="456px"><defs><filter height="300%" id="fuu78tc" width="300%" x="-1" y="-1"><feGaussianBlur result="blurOut" stdDeviation="2.0"/><feColorMatrix in="blurOut" result="blurOut2" type="matrix" values="0 0 0 0 0 0 0 0 0 0 0 0 0 0 0 0 0 0 .4 0"/><feOffset dx="4.0" dy="4.0" in="blurOut2" result="blurOut3"/><feBlend in="SourceGraphic" in2="blurOut3" mode="normal"/></filter></defs><g><line style="stroke: #A80036; stroke-width: 1.0; stroke-dasharray: 5.0,5.0;" x1="33" x2="33" y1="38.4883" y2="410.2148"/><line style="stroke: #A80036; stroke-width: 1.0; stroke-dasharray: 5.0,5.0;" x1="165" x2="165" y1="38.4883" y2="410.2148"/><line style="stroke: #A80036; stroke-width: 1.0; stroke-dasharray: 5.0,5.0;" x1="285" x2="285" y1="38.4883" y2="410.2148"/><line style="stroke: #A80036; stroke-width: 1.0; stroke-dasharray: 5.0,5.0;" x1="429.5" x2="429.5" y1="38.4883" y2="410.2148"/><rect fill="#FEFECE" filter="url(#fuu78tc)" height="30.4883" style="stroke: #A80036; stroke-width: 1.5;" width="47" x="8" y="3"/><text fill="#000000" font-family="sans-serif" font-size="14" lengthAdjust="spacingAndGlyphs" textLength="33" x="15" y="23.5352">DOM</text><rect fill="#FEFECE" filter="url(#fuu78tc)" height="30.4883" style="stroke: #A80036; stroke-width: 1.5;" width="47" x="8" y="409.2148"/><text fill="#000000" font-family="sans-serif" font-size="14" lengthAdjust="spacingAndGlyphs" textLength="33" x="15" y="429.75">DOM</text><rect fill="#FEFECE" filter="url(#fuu78tc)" height="30.4883" style="stroke: #A80036; stroke-width: 1.5;" width="69" x="129" y="3"/><text fill="#000000" font-family="sans-serif" font-size="14" lengthAdjust="spacingAndGlyphs" textLength="55" x="136" y="23.5352">jsObject</text><rect fill="#FEFECE" filter="url(#fuu78tc)" height="30.4883" style="stroke: #A80036; stroke-width: 1.5;" width="69" x="129" y="409.2148"/><text fill="#000000" font-family="sans-serif" font-size="14" lengthAdjust="spacingAndGlyphs" textLength="55" x="136" y="429.75">jsObject</text><rect fill="#FEFECE" filter="url(#fuu78tc)" height="30.4883" style="stroke: #A80036; stroke-width: 1.5;" width="43" x="262" y="3"/><text fill="#000000" font-family="sans-serif" font-size="14" lengthAdjust="spacingAndGlyphs" textLength="29" x="269" y="23.5352">json</text><rect fill="#FEFECE" filter="url(#fuu78tc)" height="30.4883" style="stroke: #A80036; stroke-width: 1.5;" width="43" x="262" y="409.2148"/><text fill="#000000" font-family="sans-serif" font-size="14" lengthAdjust="spacingAndGlyphs" textLength="29" x="269" y="429.75">json</text><rect fill="#FEFECE" filter="url(#fuu78tc)" height="30.4883" style="stroke: #A80036; stroke-width: 1.5;" width="40" x="407.5" y="3"/><text fill="#000000" font-family="sans-serif" font-size="14" lengthAdjust="spacingAndGlyphs" textLength="26" x="414.5" y="23.5352">xml</text><rect fill="#FEFECE" filter="url(#fuu78tc)" height="30.4883" style="stroke: #A80036; stroke-width: 1.5;" width="40" x="407.5" y="409.2148"/><text fill="#000000" font-family="sans-serif" font-size="14" lengthAdjust="spacingAndGlyphs" textLength="26" x="414.5" y="429.75">xml</text><polygon fill="#A80036" points="153.5,65.4883,163.5,69.4883,153.5,73.4883,157.5,69.4883" style="stroke: #A80036; stroke-width: 1.0;"/><line style="stroke: #A80036; stroke-width: 1.0;" x1="33.5" x2="159.5" y1="69.4883" y2="69.4883"/><text fill="#000000" font-family="sans-serif" font-size="13" lengthAdjust="spacingAndGlyphs" textLength="108" x="40.5" y="65.0566">XMLLite.dom2js()</text><polygon fill="#A80036" points="273.5,94.7988,283.5,98.7988,273.5,102.7988,277.5,98.7988" style="stroke: #A80036; stroke-width: 1.0;"/><line style="stroke: #A80036; stroke-width: 1.0;" x1="33.5" x2="279.5" y1="98.7988" y2="98.7988"/><text fill="#000000" font-family="sans-serif" font-size="13" lengthAdjust="spacingAndGlyphs" textLength="124" x="40.5" y="94.3672">XMLLite.dom2json()</text><polygon fill="#A80036" points="417.5,124.1094,427.5,128.1094,417.5,132.1094,421.5,128.1094" style="stroke: #A80036; stroke-width: 1.0;"/><line style="stroke: #A80036; stroke-width: 1.0;" x1="33.5" x2="423.5" y1="128.1094" y2="128.1094"/><text fill="#000000" font-family="sans-serif" font-size="13" lengthAdjust="spacingAndGlyphs" textLength="113" x="40.5" y="123.6777">XMLLite.serialize()</text><polygon fill="#A80036" points="44.5,153.4199,34.5,157.4199,44.5,161.4199,40.5,157.4199" style="stroke: #A80036; stroke-width: 1.0;"/><line style="stroke: #A80036; stroke-width: 1.0;" x1="38.5" x2="164.5" y1="157.4199" y2="157.4199"/><text fill="#000000" font-family="sans-serif" font-size="13" lengthAdjust="spacingAndGlyphs" textLength="108" x="50.5" y="152.9883">XMLLite.js2dom()</text><polygon fill="#A80036" points="273.5,182.7305,283.5,186.7305,273.5,190.7305,277.5,186.7305" style="stroke: #A80036; stroke-width: 1.0;"/><line style="stroke: #A80036; stroke-width: 1.0;" x1="165.5" x2="279.5" y1="186.7305" y2="186.7305"/><text fill="#000000" font-family="sans-serif" font-size="13" lengthAdjust="spacingAndGlyphs" textLength="96" x="172.5" y="182.2988">JSON.stringify()</text><polygon fill="#A80036" points="417.5,212.041,427.5,216.041,417.5,220.041,421.5,216.041" style="stroke: #A80036; stroke-width: 1.0;"/><line style="stroke: #A80036; stroke-width: 1.0;" x1="165.5" x2="423.5" y1="216.041" y2="216.041"/><text fill="#000000" font-family="sans-serif" font-size="13" lengthAdjust="spacingAndGlyphs" textLength="104" x="172.5" y="211.6094">XMLLite.js2xml()</text><polygon fill="#A80036" points="44.5,241.3516,34.5,245.3516,44.5,249.3516,40.5,245.3516" style="stroke: #A80036; stroke-width: 1.0;"/><line style="stroke: #A80036; stroke-width: 1.0;" x1="38.5" x2="284.5" y1="245.3516" y2="245.3516"/><text fill="#000000" font-family="sans-serif" font-size="13" lengthAdjust="spacingAndGlyphs" textLength="124" x="50.5" y="240.9199">XMLLite.json2dom()</text><polygon fill="#A80036" points="176.5,270.6621,166.5,274.6621,176.5,278.6621,172.5,274.6621" style="stroke: #A80036; stroke-width: 1.0;"/><line style="stroke: #A80036; stroke-width: 1.0;" x1="170.5" x2="284.5" y1="274.6621" y2="274.6621"/><text fill="#000000" font-family="sans-serif" font-size="13" lengthAdjust="spacingAndGlyphs" textLength="77" x="182.5" y="270.2305">JSON.parse()</text><polygon fill="#A80036" points="417.5,299.9727,427.5,303.9727,417.5,307.9727,421.5,303.9727" style="stroke: #A80036; stroke-width: 1.0;"/><line style="stroke: #A80036; stroke-width: 1.0;" x1="285.5" x2="423.5" y1="303.9727" y2="303.9727"/><text fill="#000000" font-family="sans-serif" font-size="13" lengthAdjust="spacingAndGlyphs" textLength="120" x="292.5" y="299.541">XMLLite.json2xml()</text><polygon fill="#A80036" points="44.5,329.2832,34.5,333.2832,44.5,337.2832,40.5,333.2832" style="stroke: #A80036; stroke-width: 1.0;"/><line style="stroke: #A80036; stroke-width: 1.0;" x1="38.5" x2="428.5" y1="333.2832" y2="333.2832"/><text fill="#000000" font-family="sans-serif" font-size="13" lengthAdjust="spacingAndGlyphs" textLength="95" x="50.5" y="328.8516">XMLLite.parse()</text><polygon fill="#A80036" points="176.5,358.5938,166.5,362.5938,176.5,366.5938,172.5,362.5938" style="stroke: #A80036; stroke-width: 1.0;"/><line style="stroke: #A80036; stroke-width: 1.0;" x1="170.5" x2="428.5" y1="362.5938" y2="362.5938"/><text fill="#000000" font-family="sans-serif" font-size="13" lengthAdjust="spacingAndGlyphs" textLength="104" x="182.5" y="358.1621">XMLLite.xml2js()</text><polygon fill="#A80036" points="296.5,387.9043,286.5,391.9043,296.5,395.9043,292.5,391.9043" style="stroke: #A80036; stroke-width: 1.0;"/><line style="stroke: #A80036; stroke-width: 1.0;" x1="290.5" x2="428.5" y1="391.9043" y2="391.9043"/><text fill="#000000" font-family="sans-serif" font-size="13" lengthAdjust="spacingAndGlyphs" textLength="120" x="302.5" y="387.4727">XMLLite.xml2json()</text></g></svg>